<svg width="512" height="512" viewBox="0 0 512 512" fill="none" xmlns="http://www.w3.org/2000/svg">
<g opacity="0.15">
<path d="M12.475 36.0521L0 43.6961L87.345 189.38L121.234 207.028L107.808 106.474L70.428 10.4561C50.14 16.4271 30.582 24.9561 12.475 36.0521Z" fill="#EAD597"/>
<path d="M141.639 0.00683594C117.667 0.162836 93.573 3.64484 70.427 10.4558L121.234 207.028L141.639 217.654L154.747 104.048L141.639 0.00683594Z" fill="#D7BA88"/>
<path d="M141.639 0.00651689V217.655L164.519 206.802L202.335 112.767L215.274 10.4295C191.682 3.31952 166.727 -0.157483 141.639 0.00651689Z" fill="#C3A17B"/>
<path d="M285.695 45.7537L273.794 37.7937C255.917 25.8357 236.128 16.7137 215.275 10.4297L164.52 206.802L195.934 189.38L285.695 45.7537Z" fill="#AF866D"/>
<path d="M87.345 189.38V278.854L141.639 306.837L158.71 237.479L141.639 189.38H87.345Z" fill="#FFF0A5"/>
<path d="M141.639 189.38V306.837L195.933 278.854V189.38H141.639Z" fill="#FEDB7C"/>
<path d="M87.345 278.854V457.701C87.345 487.639 111.701 511.995 141.639 511.995L164.519 393.991L141.639 278.854H87.345Z" fill="#865050"/>
<path d="M141.639 278.854V511.995C171.577 511.995 195.933 487.639 195.933 457.701V278.854H141.639Z" fill="#624A4F"/>
<path d="M231.281 311.634C231.281 388.759 293.811 451.547 370.835 451.984L401.836 319.841L370.835 171.285C293.81 171.721 231.281 234.509 231.281 311.634Z" fill="#FF6699"/>
<path d="M371.641 171.274C371.372 171.274 371.104 171.283 370.835 171.284V451.983C371.104 451.984 371.371 451.993 371.641 451.993C449.036 451.993 512 389.028 512 311.633C512 234.238 449.035 171.274 371.641 171.274Z" fill="#FF3377"/>
<path d="M282.519 311.634C282.519 360.507 322.063 400.311 370.835 400.746L401.836 311.634L370.835 222.522C322.063 222.957 282.519 262.761 282.519 311.634Z" fill="#FAF9FF"/>
<path d="M229.67 462.398V465.089C229.67 490.955 250.713 511.998 276.579 511.998H370.835L392.299 484.443L370.835 450.03L229.67 462.398Z" fill="#FF3377"/>
<path d="M376.659 449.52L370.835 450.03V511.998H465.091C490.957 511.998 512 490.955 512 465.089V462.398L376.659 449.52Z" fill="#E50070"/>
<path d="M229.67 421.994V462.398H370.835L392.299 442.196L370.835 421.994H229.67Z" fill="#FDCBC5"/>
<path d="M370.835 421.994H512V462.399H370.835V421.994Z" fill="#FDBEB6"/>
<path d="M371.64 222.512C371.371 222.512 371.103 222.52 370.835 222.522V400.746C371.104 400.748 371.371 400.756 371.64 400.756C420.782 400.756 460.762 360.776 460.762 311.634C460.762 262.493 420.782 222.512 371.64 222.512Z" fill="#ECE6EA"/>
</g>
</svg>
