<svg width="34" height="34" viewBox="0 0 34 34" fill="none" xmlns="http://www.w3.org/2000/svg">
<path d="M16.9698 2.83301C20.3239 2.83301 23.2879 4.90429 24.382 7.97249C24.4971 8.28227 24.4683 8.62021 24.3244 8.9159C24.1804 9.2116 23.9227 9.43689 23.6046 9.53686C22.9568 9.76075 22.2371 9.42422 21.9923 8.7765C21.2582 6.69114 19.2443 5.29714 16.9986 5.29714C14.0605 5.29714 11.6867 7.6078 11.6709 10.4366V12.3375L11.6536 12.3403H22.9942C26.334 12.3403 29.0417 14.9889 29.0417 18.2557V25.251C29.0417 28.5177 26.334 31.1663 22.9942 31.1663H11.0044C7.66613 31.1663 4.95837 28.5177 4.95837 25.251V18.2557C4.95837 15.5691 6.80097 13.326 9.30863 12.6051L9.15172 12.6234V10.4648C9.18052 6.25604 12.68 2.83301 16.9698 2.83301ZM16.9928 18.9583C16.3019 18.9583 15.7405 19.5075 15.7405 20.1833V23.3093C15.7405 23.9992 16.3019 24.5484 16.9928 24.5484C17.6982 24.5484 18.2596 23.9992 18.2596 23.3093V20.1833C18.2596 19.5075 17.6982 18.9583 16.9928 18.9583Z" fill="#E6E6E6"/>
</svg>
