<svg width="34" height="34" viewBox="0 0 34 34" fill="none" xmlns="http://www.w3.org/2000/svg">
<path d="M23.9974 4.25C25.8972 4.25 27.7247 5.00083 29.0691 6.34808C30.4149 7.6925 31.1672 9.50583 31.1672 11.4042V22.5958C31.1672 26.5483 27.9514 29.75 23.9974 29.75H10.0022C6.04828 29.75 2.83386 26.5483 2.83386 22.5958V11.4042C2.83386 7.45167 6.03411 4.25 10.0022 4.25H23.9974ZM25.5997 11.6167C25.3022 11.6011 25.0189 11.7017 24.8049 11.9L18.4172 17C17.5955 17.6814 16.4183 17.6814 15.5839 17L9.20886 11.9C8.76828 11.5742 8.15911 11.6167 7.7922 11.9992C7.4097 12.3817 7.3672 12.9908 7.69161 13.4158L7.8772 13.6L14.323 18.6292C15.1164 19.2525 16.0783 19.5925 17.0855 19.5925C18.0899 19.5925 19.0689 19.2525 19.8608 18.6292L26.2514 13.515L26.3647 13.4017C26.7033 12.9908 26.7033 12.3958 26.3491 11.985C26.1522 11.7739 25.8816 11.645 25.5997 11.6167Z" fill="#E6E6E6"/>
</svg>
