<svg width="361" height="86" viewBox="0 0 361 86" fill="none" xmlns="http://www.w3.org/2000/svg">
<path d="M123.895 3.66652C126.38 3.66652 128.463 4.00713 130.146 4.68834C131.869 5.36955 133.552 6.33126 135.195 7.57347C135.676 7.93411 136.077 8.11443 136.398 8.11443C136.798 8.11443 137.119 7.83393 137.359 7.27293C137.6 6.67186 137.78 5.75023 137.9 4.50802H139.283C139.122 7.23286 139.042 12.0815 139.042 19.0539H137.66C137.339 16.329 136.858 14.1251 136.217 12.4421C135.616 10.7591 134.594 9.33661 133.152 8.17454C132.19 7.2529 131.008 6.53162 129.605 6.01069C128.203 5.48976 126.76 5.2293 125.278 5.2293C122.473 5.2293 120.129 6.19101 118.245 8.11443C116.402 9.99778 115.04 12.5022 114.158 15.6278C113.276 18.7534 112.836 22.1794 112.836 25.9061C112.836 39.7707 116.682 46.7031 124.376 46.7031C126.139 46.7031 127.562 46.3023 128.644 45.5009C129.165 45.1403 129.525 44.7195 129.726 44.2387C129.966 43.7578 130.086 43.1367 130.086 42.3754V36.4849C130.086 34.6015 129.926 33.2391 129.605 32.3976C129.285 31.5161 128.704 30.915 127.862 30.5944C127.061 30.2738 125.779 30.0735 124.016 29.9933V28.7912C126.5 28.9114 129.926 28.9715 134.294 28.9715C137.86 28.9715 140.545 28.9114 142.348 28.7912V29.9933C141.547 30.0735 140.966 30.2338 140.605 30.4742C140.244 30.7146 139.984 31.1754 139.824 31.8567C139.703 32.5379 139.643 33.6398 139.643 35.1625V47.0637H138.441C138.401 46.2222 138.221 45.4408 137.9 44.7195C137.62 43.9982 137.219 43.6376 136.698 43.6376C136.017 43.6376 134.935 44.0584 133.452 44.8998C129.966 46.9034 126.68 47.9052 123.595 47.9052C116.662 47.9052 111.353 46.0218 107.666 42.2551C103.98 38.4484 102.137 33.1189 102.137 26.2667C102.137 21.7787 103.058 17.8317 104.902 14.4257C106.785 11.0196 109.369 8.3749 112.655 6.49155C115.941 4.6082 119.688 3.66652 123.895 3.66652Z" fill="black"/>
<path d="M157.339 41.4738C157.339 43.1167 157.619 44.2587 158.18 44.8998C158.741 45.5009 159.743 45.8015 161.186 45.8015V47.0637C157.018 46.9034 154.333 46.8233 153.131 46.8233C151.769 46.8233 149.004 46.9034 144.836 47.0637V45.8015C146.239 45.8015 147.221 45.5009 147.782 44.8998C148.383 44.2587 148.683 43.1167 148.683 41.4738V7.21283C148.683 5.36955 148.383 4.02716 147.782 3.18567C147.221 2.34417 146.239 1.92342 144.836 1.92342V0.661178C146.119 0.78139 147.361 0.841496 148.563 0.841496C152.049 0.841496 154.974 0.560998 157.339 0V41.4738Z" fill="black"/>
<path d="M171.677 47.4844C169.112 47.4844 167.189 46.8233 165.907 45.5009C164.665 44.1786 164.043 42.4355 164.043 40.2716C164.043 38.4684 164.504 36.9858 165.426 35.8237C166.388 34.6216 167.53 33.6999 168.852 33.0588C170.214 32.4177 171.937 31.7364 174.021 31.0152C176.225 30.2538 177.828 29.5726 178.83 28.9715C179.872 28.3304 180.392 27.4689 180.392 26.3869V21.6986C180.392 20.0156 179.992 18.7133 179.19 17.7916C178.429 16.8299 177.227 16.3491 175.584 16.3491C173.661 16.3491 172.198 16.8299 171.196 17.7916C172.318 18.1924 173.18 18.7934 173.781 19.5948C174.422 20.3963 174.742 21.3379 174.742 22.4199C174.742 23.7823 174.282 24.8642 173.36 25.6656C172.438 26.4671 171.316 26.8678 169.994 26.8678C168.591 26.8678 167.51 26.427 166.748 25.5454C165.987 24.6639 165.606 23.5619 165.606 22.2396C165.606 21.1176 165.867 20.1759 166.388 19.4145C166.949 18.6131 167.79 17.8718 168.912 17.1906C169.994 16.5494 171.316 16.0485 172.879 15.6879C174.482 15.3273 176.225 15.1469 178.108 15.1469C180.072 15.1469 181.775 15.3473 183.218 15.748C184.66 16.1487 185.862 16.8299 186.824 17.7916C187.705 18.6732 188.287 19.7551 188.567 21.0374C188.888 22.3197 189.048 24.0628 189.048 26.2667V42.6158C189.048 43.5775 189.128 44.2587 189.288 44.6594C189.489 45.0601 189.849 45.2605 190.37 45.2605C190.971 45.2605 191.693 44.9199 192.534 44.2387L193.135 45.2605C191.332 46.7431 189.128 47.4844 186.523 47.4844C184.319 47.4844 182.777 47.0437 181.895 46.1621C181.014 45.2805 180.553 44.0984 180.513 42.6158C178.509 45.8616 175.564 47.4844 171.677 47.4844ZM176.305 43.6376C177.868 43.6376 179.23 42.8161 180.392 41.1732V28.8513C179.912 29.6527 178.89 30.5343 177.327 31.496C175.764 32.4978 174.582 33.4996 173.781 34.5014C172.979 35.5031 172.579 36.9457 172.579 38.8291C172.579 40.472 172.919 41.6941 173.6 42.4956C174.282 43.2569 175.183 43.6376 176.305 43.6376Z" fill="black"/>
<path d="M243.179 41.4738C243.179 43.1167 243.459 44.2587 244.02 44.8998C244.621 45.5009 245.623 45.8015 247.026 45.8015V47.0637C243.019 46.9034 240.374 46.8233 239.092 46.8233C237.97 46.8233 235.485 46.9034 231.638 47.0637V45.8015C232.72 45.8015 233.462 45.5009 233.862 44.8998C234.303 44.2988 234.523 43.1567 234.523 41.4738V22.7805C234.523 21.0975 234.263 19.8553 233.742 19.0539C233.261 18.2124 232.32 17.7916 230.917 17.7916C229.434 17.7916 228.132 18.4127 227.01 19.655C225.928 20.8972 225.287 22.4199 225.087 24.2231V41.4738C225.087 43.1167 225.327 44.2587 225.808 44.8998C226.329 45.5009 227.251 45.8015 228.573 45.8015V47.0637C224.726 46.9034 222.202 46.8233 220.999 46.8233C219.877 46.8233 217.393 46.9034 213.546 47.0637V45.8015C214.628 45.8015 215.369 45.5009 215.77 44.8998C216.211 44.2587 216.431 43.1167 216.431 41.4738V22.7805C216.431 21.0975 216.211 19.8553 215.77 19.0539C215.329 18.2124 214.468 17.7916 213.185 17.7916C211.583 17.7916 210.2 18.4729 209.038 19.8353C207.916 21.1576 207.355 22.8005 207.355 24.764V41.4738C207.355 43.1167 207.555 44.2587 207.956 44.8998C208.397 45.5009 209.158 45.8015 210.24 45.8015V47.0637C206.714 46.9034 204.35 46.8233 203.148 46.8233C201.946 46.8233 199.181 46.9034 194.853 47.0637V45.8015C196.295 45.8015 197.297 45.5009 197.858 44.8998C198.419 44.2587 198.7 43.1167 198.7 41.4738V22.5401C198.7 20.6968 198.419 19.3544 197.858 18.5129C197.297 17.6714 196.295 17.2507 194.853 17.2507V15.9884C196.135 16.1087 197.377 16.1688 198.58 16.1688C202.146 16.1688 205.071 15.8883 207.355 15.3273V20.7369C209.118 17.0103 212.224 15.1469 216.672 15.1469C219.717 15.1469 221.921 15.9283 223.283 17.4911C224.045 18.2925 224.546 19.4947 224.786 21.0975C225.828 18.9337 227.19 17.411 228.873 16.5294C230.556 15.6078 232.52 15.1469 234.764 15.1469C237.809 15.1469 240.013 15.9283 241.376 17.4911C242.017 18.2124 242.478 19.1941 242.758 20.4363C243.039 21.6786 243.179 23.3014 243.179 25.305V41.4738Z" fill="black"/>
<path d="M264.774 15.1469C269.382 15.1469 272.988 16.4693 275.593 19.114C278.198 21.7186 279.5 25.866 279.5 31.5561C279.5 37.2462 278.198 41.3936 275.593 43.9982C272.988 46.6029 269.382 47.9052 264.774 47.9052C260.206 47.9052 256.599 46.6029 253.954 43.9982C251.35 41.3936 250.047 37.2462 250.047 31.5561C250.047 25.866 251.35 21.7186 253.954 19.114C256.599 16.4693 260.206 15.1469 264.774 15.1469ZM264.774 16.3491C263.051 16.3491 261.668 17.6113 260.626 20.1358C259.624 22.6202 259.124 26.427 259.124 31.5561C259.124 36.6852 259.624 40.492 260.626 42.9764C261.668 45.4608 263.051 46.7031 264.774 46.7031C266.537 46.7031 267.919 45.4809 268.921 43.0365C269.923 40.5521 270.424 36.7253 270.424 31.5561C270.424 26.3869 269.903 22.5601 268.861 20.0757C267.859 17.5913 266.497 16.3491 264.774 16.3491Z" fill="black"/>
<path d="M313.186 40.512C313.186 42.3553 313.466 43.6977 314.027 44.5392C314.628 45.3807 315.63 45.8015 317.032 45.8015V47.0637C315.79 46.9435 314.548 46.8834 313.306 46.8834C309.82 46.8834 306.894 47.1639 304.53 47.7249V42.3153C302.687 46.0419 299.461 47.9052 294.853 47.9052C291.848 47.9052 289.664 47.1238 288.301 45.561C287.66 44.7997 287.179 43.8179 286.859 42.6158C286.578 41.3736 286.438 39.7507 286.438 37.7471V22.5401C286.438 20.6968 286.137 19.3544 285.536 18.5129C284.975 17.6714 283.994 17.2507 282.591 17.2507V15.9884C283.833 16.1087 285.076 16.1688 286.318 16.1688C289.804 16.1688 292.729 15.8883 295.093 15.3273V40.2115C295.093 41.8945 295.334 43.1567 295.815 43.9982C296.336 44.8397 297.297 45.2605 298.7 45.2605C300.303 45.2605 301.665 44.5993 302.787 43.277C303.949 41.9145 304.53 40.2516 304.53 38.2881V22.5401C304.53 20.6968 304.23 19.3544 303.629 18.5129C303.068 17.6714 302.086 17.2507 300.683 17.2507V15.9884C301.966 16.1087 303.208 16.1688 304.41 16.1688C307.896 16.1688 310.821 15.8883 313.186 15.3273V40.512Z" fill="black"/>
<path d="M340.381 15.1469C342.184 15.1469 343.546 15.6879 344.468 16.7698C345.39 17.8517 345.85 19.1541 345.85 20.6768C345.85 22.1594 345.41 23.3816 344.528 24.3433C343.686 25.2649 342.564 25.7258 341.162 25.7258C339.8 25.7258 338.718 25.3851 337.916 24.7039C337.115 23.9827 336.714 23.041 336.714 21.8789C336.714 19.9555 337.596 18.3927 339.359 17.1906C339.199 17.1505 338.958 17.1305 338.638 17.1305C338.237 17.1305 337.916 17.1705 337.676 17.2507C336.153 17.4911 334.851 18.4127 333.769 20.0156C332.727 21.6184 332.206 23.2614 332.206 24.9444V40.8727C332.206 42.716 332.647 43.9982 333.528 44.7195C334.45 45.4408 335.893 45.8015 337.856 45.8015V47.0637C337.295 47.0637 336.834 47.0437 336.474 47.0036C332.386 46.8834 329.662 46.8233 328.299 46.8233C327.217 46.8233 324.753 46.8834 320.906 47.0036C320.585 47.0437 320.185 47.0637 319.704 47.0637V45.8015C321.146 45.8015 322.148 45.5009 322.709 44.8998C323.27 44.2587 323.551 43.1167 323.551 41.4738V22.5401C323.551 20.6968 323.27 19.3544 322.709 18.5129C322.148 17.6714 321.146 17.2507 319.704 17.2507V15.9884C320.986 16.1087 322.228 16.1688 323.43 16.1688C326.997 16.1688 329.922 15.8883 332.206 15.3273V20.9172C332.967 19.1941 334.069 17.8117 335.512 16.7698C336.955 15.6879 338.577 15.1469 340.381 15.1469Z" fill="black"/>
<path d="M112.744 74.8379C113.375 74.9506 113.91 75.2831 114.35 75.8353C114.789 76.3876 115.009 77.0131 115.009 77.7118C115.009 78.3091 114.851 78.8501 114.536 79.3347C114.231 79.808 113.786 80.1856 113.2 80.4673C112.614 80.7378 111.932 80.873 111.155 80.873H106.455V69.124H110.935C111.735 69.124 112.423 69.2593 112.997 69.5297C113.572 69.8002 114.006 70.1665 114.299 70.6286C114.592 71.0794 114.739 71.5865 114.739 72.15C114.739 72.8262 114.558 73.3897 114.198 73.8405C113.837 74.2913 113.352 74.6238 112.744 74.8379ZM108.382 74.0603H110.766C111.397 74.0603 111.887 73.9194 112.237 73.6377C112.597 73.3447 112.778 72.9277 112.778 72.3867C112.778 71.857 112.597 71.4457 112.237 71.1526C111.887 70.8483 111.397 70.6962 110.766 70.6962H108.382V74.0603ZM110.986 79.3009C111.639 79.3009 112.152 79.1431 112.524 78.8275C112.896 78.512 113.082 78.0724 113.082 77.5089C113.082 76.9342 112.885 76.4777 112.49 76.1396C112.096 75.8015 111.572 75.6325 110.918 75.6325H108.382V79.3009H110.986Z" fill="black"/>
<path d="M125.64 75.9875C125.64 76.3369 125.618 76.6524 125.573 76.9342H118.456C118.512 77.678 118.788 78.2753 119.284 78.7261C119.78 79.1769 120.389 79.4023 121.11 79.4023C122.147 79.4023 122.879 78.9684 123.307 78.1006H125.387C125.105 78.9571 124.592 79.6615 123.848 80.2137C123.116 80.7547 122.203 81.0252 121.11 81.0252C120.219 81.0252 119.419 80.828 118.709 80.4335C118.011 80.0278 117.458 79.4643 117.053 78.743C116.658 78.0105 116.461 77.1652 116.461 76.2072C116.461 75.2493 116.652 74.4097 117.036 73.6884C117.43 72.9558 117.977 72.3923 118.675 71.9979C119.385 71.6034 120.197 71.4062 121.11 71.4062C121.989 71.4062 122.772 71.5978 123.46 71.981C124.147 72.3642 124.682 72.9051 125.066 73.6039C125.449 74.2913 125.64 75.0859 125.64 75.9875ZM123.629 75.3789C123.617 74.6689 123.364 74.0997 122.868 73.6715C122.372 73.2432 121.758 73.0291 121.025 73.0291C120.36 73.0291 119.791 73.2432 119.318 73.6715C118.845 74.0885 118.563 74.6576 118.473 75.3789H123.629Z" fill="black"/>
<path d="M126.894 76.1734C126.894 75.238 127.086 74.4097 127.469 73.6884C127.864 72.9671 128.393 72.4092 129.058 72.0148C129.735 71.6091 130.478 71.4062 131.29 71.4062C132.022 71.4062 132.659 71.5527 133.2 71.8457C133.752 72.1275 134.192 72.4825 134.519 72.9108V71.5584H136.463V80.873H134.519V79.4868C134.192 79.9264 133.747 80.2926 133.183 80.5857C132.62 80.8787 131.977 81.0252 131.256 81.0252C130.456 81.0252 129.723 80.8223 129.058 80.4166C128.393 79.9996 127.864 79.4248 127.469 78.6923C127.086 77.9485 126.894 77.1088 126.894 76.1734ZM134.519 76.2072C134.519 75.5649 134.383 75.007 134.113 74.5336C133.854 74.0603 133.51 73.6997 133.082 73.4517C132.653 73.2038 132.191 73.0798 131.696 73.0798C131.2 73.0798 130.738 73.2038 130.309 73.4517C129.881 73.6884 129.532 74.0434 129.261 74.5167C129.002 74.9788 128.872 75.531 128.872 76.1734C128.872 76.8158 129.002 77.3793 129.261 77.8639C129.532 78.3486 129.881 78.7205 130.309 78.9797C130.749 79.2276 131.211 79.3516 131.696 79.3516C132.191 79.3516 132.653 79.2276 133.082 78.9797C133.51 78.7317 133.854 78.3711 134.113 77.8978C134.383 77.4131 134.519 76.8496 134.519 76.2072Z" fill="black"/>
<path d="M147.43 71.5584V80.873H145.502V79.7742C145.198 80.1574 144.798 80.4617 144.302 80.6871C143.818 80.9012 143.299 81.0083 142.747 81.0083C142.014 81.0083 141.355 80.8561 140.769 80.5518C140.194 80.2476 139.738 79.7968 139.4 79.1994C139.073 78.6021 138.91 77.8808 138.91 77.0356V71.5584H140.82V76.7482C140.82 77.5822 141.028 78.2246 141.445 78.6754C141.862 79.1149 142.431 79.3347 143.153 79.3347C143.874 79.3347 144.443 79.1149 144.86 78.6754C145.288 78.2246 145.502 77.5822 145.502 76.7482V71.5584H147.43Z" fill="black"/>
<path d="M152.221 73.1305V78.2866C152.221 78.6359 152.3 78.8895 152.457 79.0473C152.627 79.1938 152.908 79.2671 153.303 79.2671H154.486V80.873H152.965C152.097 80.873 151.432 80.6702 150.97 80.2645C150.508 79.8587 150.277 79.1994 150.277 78.2866V73.1305H149.178V71.5584H150.277V69.2424H152.221V71.5584H154.486V73.1305H152.221Z" fill="black"/>
<path d="M164.647 71.5584L158.933 85.2515H156.938L158.832 80.7209L155.163 71.5584H157.31L159.931 78.6585L162.652 71.5584H164.647Z" fill="black"/>
<path d="M180.7 72.7248C180.7 73.3559 180.548 73.9476 180.244 74.4998C179.951 75.0521 179.483 75.4972 178.84 75.8353C178.209 76.1734 177.409 76.3425 176.44 76.3425H174.462V80.873H172.095V69.0733H176.44C177.353 69.0733 178.13 69.2311 178.773 69.5466C179.415 69.8622 179.894 70.2961 180.21 70.8483C180.537 71.4006 180.7 72.026 180.7 72.7248ZM176.339 74.4322C176.992 74.4322 177.477 74.2857 177.792 73.9927C178.108 73.6884 178.266 73.2657 178.266 72.7248C178.266 71.5752 177.623 71.0005 176.339 71.0005H174.462V74.4322H176.339Z" fill="#673BB7"/>
<path d="M181.772 76.1565C181.772 75.2098 181.958 74.3702 182.33 73.6377C182.713 72.9051 183.226 72.3416 183.868 71.9472C184.522 71.5527 185.249 71.3555 186.049 71.3555C186.747 71.3555 187.356 71.4964 187.874 71.7781C188.404 72.0599 188.827 72.4149 189.142 72.8431V71.5076H191.526V80.873H189.142V79.5037C188.838 79.9432 188.415 80.3095 187.874 80.6025C187.345 80.8843 186.731 81.0252 186.032 81.0252C185.243 81.0252 184.522 80.8223 183.868 80.4166C183.226 80.0109 182.713 79.4417 182.33 78.7092C181.958 77.9654 181.772 77.1145 181.772 76.1565ZM189.142 76.1903C189.142 75.6156 189.03 75.1253 188.804 74.7196C188.579 74.3026 188.275 73.987 187.891 73.7729C187.508 73.5475 187.097 73.4348 186.657 73.4348C186.218 73.4348 185.812 73.5419 185.44 73.756C185.068 73.9701 184.764 74.2857 184.527 74.7027C184.302 75.1084 184.189 75.593 184.189 76.1565C184.189 76.72 184.302 77.2159 184.527 77.6442C184.764 78.0612 185.068 78.3823 185.44 78.6077C185.823 78.8331 186.229 78.9459 186.657 78.9459C187.097 78.9459 187.508 78.8388 187.891 78.6247C188.275 78.3993 188.579 78.0837 188.804 77.678C189.03 77.261 189.142 76.7651 189.142 76.1903Z" fill="#673BB7"/>
<path d="M196.204 68.3633V80.873H193.837V68.3633H196.204Z" fill="#673BB7"/>
<path d="M202.701 81.0252C201.8 81.0252 200.988 80.8279 200.267 80.4335C199.546 80.0278 198.976 79.4586 198.559 78.7261C198.154 77.9935 197.951 77.1483 197.951 76.1903C197.951 75.2324 198.159 74.3871 198.576 73.6546C199.005 72.922 199.585 72.3585 200.318 71.9641C201.05 71.5583 201.867 71.3555 202.769 71.3555C203.67 71.3555 204.487 71.5583 205.22 71.9641C205.953 72.3585 206.527 72.922 206.944 73.6546C207.373 74.3871 207.587 75.2324 207.587 76.1903C207.587 77.1483 207.367 77.9935 206.927 78.7261C206.499 79.4586 205.913 80.0278 205.169 80.4335C204.437 80.8279 203.614 81.0252 202.701 81.0252ZM202.701 78.9628C203.129 78.9628 203.53 78.8613 203.901 78.6585C204.285 78.4443 204.589 78.1288 204.814 77.7118C205.04 77.2948 205.152 76.7876 205.152 76.1903C205.152 75.3 204.916 74.6182 204.442 74.1448C203.98 73.6602 203.411 73.4179 202.735 73.4179C202.059 73.4179 201.49 73.6602 201.028 74.1448C200.577 74.6182 200.351 75.3 200.351 76.1903C200.351 77.0807 200.571 77.7681 201.011 78.2527C201.461 78.7261 202.025 78.9628 202.701 78.9628Z" fill="#673BB7"/>
<path d="M211.69 72.9615C211.994 72.4656 212.388 72.0768 212.873 71.795C213.369 71.5133 213.932 71.3724 214.563 71.3724V73.8574H213.938C213.194 73.8574 212.631 74.0321 212.247 74.3815C211.875 74.7309 211.69 75.3394 211.69 76.2072V80.873H209.323V71.5076H211.69V72.9615Z" fill="#673BB7"/>
<path d="M230.112 80.873L228.658 79.4192C228.094 79.9827 227.48 80.4053 226.815 80.6871C226.15 80.9575 225.406 81.0928 224.584 81.0928C223.75 81.0928 223.012 80.9463 222.369 80.6533C221.727 80.3602 221.231 79.9432 220.881 79.4023C220.532 78.85 220.357 78.2133 220.357 77.492C220.357 76.6806 220.588 75.9593 221.051 75.3282C221.513 74.6858 222.2 74.1786 223.113 73.8067C222.786 73.4122 222.555 73.046 222.42 72.7079C222.285 72.3585 222.217 71.9753 222.217 71.5583C222.217 71.0399 222.347 70.5778 222.606 70.1721C222.876 69.7664 223.259 69.4452 223.755 69.2085C224.251 68.9719 224.826 68.8535 225.48 68.8535C226.145 68.8535 226.708 68.9831 227.17 69.2423C227.644 69.4903 227.993 69.834 228.218 70.2735C228.455 70.7131 228.551 71.2033 228.506 71.7443H226.578C226.59 71.3273 226.488 71.0061 226.274 70.7807C226.06 70.544 225.767 70.4257 225.395 70.4257C225.023 70.4257 224.719 70.5384 224.482 70.7638C224.257 70.9779 224.144 71.2428 224.144 71.5583C224.144 71.8626 224.229 72.1669 224.398 72.4712C224.578 72.7642 224.888 73.1474 225.328 73.6207L228.438 76.7144L229.638 74.7365H231.718L230.196 77.3399L229.774 78.033L232.63 80.873H230.112ZM224.584 79.453C225.643 79.453 226.578 79.0191 227.39 78.1513L224.279 75.0239C222.95 75.5536 222.285 76.3537 222.285 77.4244C222.285 77.9992 222.499 78.4838 222.927 78.8782C223.355 79.2614 223.907 79.453 224.584 79.453Z" fill="#E83E8C"/>
<path d="M241.81 80.9912C241.021 80.9912 240.311 80.8559 239.68 80.5855C239.049 80.3037 238.553 79.9093 238.192 79.4021C237.832 78.895 237.651 78.3033 237.651 77.6271H239.714C239.759 78.1342 239.956 78.5512 240.305 78.878C240.666 79.2049 241.168 79.3683 241.81 79.3683C242.475 79.3683 242.993 79.2105 243.365 78.895C243.737 78.5681 243.923 78.1511 243.923 77.644C243.923 77.2495 243.805 76.9283 243.568 76.6804C243.343 76.4324 243.055 76.2409 242.706 76.1056C242.368 75.9704 241.895 75.8239 241.286 75.6661C240.52 75.4632 239.894 75.2604 239.409 75.0575C238.936 74.8434 238.53 74.5165 238.192 74.077C237.854 73.6375 237.685 73.0514 237.685 72.3189C237.685 71.6427 237.854 71.051 238.192 70.5439C238.53 70.0367 239.004 69.6479 239.612 69.3774C240.221 69.1069 240.925 68.9717 241.725 68.9717C242.864 68.9717 243.794 69.2591 244.515 69.8338C245.247 70.3973 245.653 71.175 245.732 72.1667H243.602C243.568 71.7385 243.365 71.3722 242.993 71.0679C242.621 70.7636 242.131 70.6115 241.523 70.6115C240.97 70.6115 240.52 70.7523 240.17 71.0341C239.821 71.3158 239.646 71.7216 239.646 72.2513C239.646 72.6119 239.753 72.9106 239.967 73.1472C240.193 73.3726 240.475 73.553 240.813 73.6882C241.151 73.8234 241.613 73.9699 242.199 74.1277C242.976 74.3419 243.608 74.556 244.092 74.7701C244.588 74.9842 245.005 75.3167 245.343 75.7675C245.693 76.207 245.867 76.7987 245.867 77.5425C245.867 78.1399 245.704 78.7034 245.377 79.2331C245.061 79.7627 244.594 80.191 243.974 80.5178C243.365 80.8334 242.644 80.9912 241.81 80.9912Z" fill="#E83E8C"/>
<path d="M250.068 72.9275C250.395 72.4992 250.84 72.1386 251.404 71.8455C251.967 71.5525 252.604 71.406 253.314 71.406C254.126 71.406 254.864 71.6089 255.529 72.0146C256.205 72.409 256.735 72.9669 257.118 73.6882C257.501 74.4095 257.693 75.2378 257.693 76.1732C257.693 77.1087 257.501 77.9483 257.118 78.6921C256.735 79.4246 256.205 79.9994 255.529 80.4164C254.864 80.8221 254.126 81.025 253.314 81.025C252.604 81.025 251.973 80.8841 251.421 80.6024C250.869 80.3093 250.418 79.9487 250.068 79.5204V85.302H248.141V71.5582H250.068V72.9275ZM255.732 76.1732C255.732 75.5308 255.596 74.9786 255.326 74.5165C255.067 74.0432 254.717 73.6882 254.278 73.4515C253.85 73.2036 253.387 73.0796 252.892 73.0796C252.407 73.0796 251.945 73.2036 251.505 73.4515C251.077 73.6995 250.728 74.0601 250.457 74.5334C250.198 75.0068 250.068 75.5647 250.068 76.207C250.068 76.8494 250.198 77.4129 250.457 77.8976C250.728 78.3709 251.077 78.7315 251.505 78.9795C251.945 79.2274 252.407 79.3514 252.892 79.3514C253.387 79.3514 253.85 79.2274 254.278 78.9795C254.717 78.7203 255.067 78.3484 255.326 77.8637C255.596 77.3791 255.732 76.8156 255.732 76.1732Z" fill="#E83E8C"/>
<path d="M258.956 76.1732C258.956 75.2378 259.148 74.4095 259.531 73.6882C259.925 72.9669 260.455 72.409 261.12 72.0146C261.796 71.6089 262.54 71.406 263.351 71.406C264.084 71.406 264.721 71.5525 265.262 71.8455C265.814 72.1273 266.253 72.4823 266.58 72.9106V71.5582H268.524V80.8728H266.58V79.4866C266.253 79.9262 265.808 80.2924 265.245 80.5855C264.681 80.8785 264.039 81.025 263.317 81.025C262.517 81.025 261.785 80.8221 261.12 80.4164C260.455 79.9994 259.925 79.4246 259.531 78.6921C259.148 77.9483 258.956 77.1087 258.956 76.1732ZM266.58 76.207C266.58 75.5647 266.445 75.0068 266.174 74.5334C265.915 74.0601 265.571 73.6995 265.143 73.4515C264.715 73.2036 264.253 73.0796 263.757 73.0796C263.261 73.0796 262.799 73.2036 262.371 73.4515C261.943 73.6882 261.593 74.0432 261.323 74.5165C261.063 74.9786 260.934 75.5308 260.934 76.1732C260.934 76.8156 261.063 77.3791 261.323 77.8637C261.593 78.3484 261.943 78.7203 262.371 78.9795C262.81 79.2274 263.272 79.3514 263.757 79.3514C264.253 79.3514 264.715 79.2274 265.143 78.9795C265.571 78.7315 265.915 78.3709 266.174 77.8976C266.445 77.4129 266.58 76.8494 266.58 76.207Z" fill="#E83E8C"/>
<path d="M360.641 45.1848C360.641 48.297 358.118 50.8198 355.006 50.8198C351.894 50.8198 349.371 48.297 349.371 45.1848C349.371 42.0727 351.894 39.5498 355.006 39.5498C358.118 39.5498 360.641 42.0727 360.641 45.1848Z" fill="#E83E8C"/>
<g opacity="0.8" clip-path="url(#clip0)">
<path d="M1.73912 14.5234L0 15.589L12.1766 35.8985L16.901 38.3588L15.0293 24.3408L9.81823 10.9551C6.98992 11.7875 4.26338 12.9765 1.73912 14.5234Z" fill="#EAD597"/>
<path d="M19.7455 9.49805C16.4036 9.51979 13.0447 10.0052 9.81799 10.9547L16.9009 38.3584L19.7455 39.8398L21.5729 24.0022L19.7455 9.49805Z" fill="#D7BA88"/>
<path d="M19.7457 9.49687V39.8388L22.9354 38.3258L28.2073 25.2165L30.0111 10.9499C26.7221 9.95873 23.2432 9.474 19.7457 9.49687Z" fill="#C3A17B"/>
<path d="M39.8282 15.8746L38.1691 14.765C35.6769 13.0979 32.9182 11.8262 30.0111 10.9502L22.9354 38.326L27.3148 35.8973L39.8282 15.8746Z" fill="#AF866D"/>
<path d="M12.1766 35.8975V48.3709L19.7457 52.2719L22.1255 42.6028L19.7457 35.8975H12.1766Z" fill="#FFF0A5"/>
<path d="M19.7457 35.8975V52.2719L27.3148 48.3709V35.8975H19.7457Z" fill="#FEDB7C"/>
<path d="M12.1766 48.3711V73.3038C12.1766 77.4774 15.5721 80.8728 19.7457 80.8728L22.9353 64.4221L19.7457 48.3711H12.1766Z" fill="#865050"/>
<path d="M19.7457 48.3711V80.8728C23.9193 80.8728 27.3148 77.4774 27.3148 73.3038V48.3711H19.7457Z" fill="#624A4F"/>
<path d="M32.2423 52.9418C32.2423 63.6936 40.9595 72.4468 51.6973 72.5077L56.0191 54.0859L51.6973 33.376C40.9594 33.4368 32.2423 42.1899 32.2423 52.9418Z" fill="#FF6699"/>
<path d="M51.8096 33.373C51.7721 33.373 51.7348 33.3743 51.6973 33.3744V72.5062C51.7348 72.5063 51.772 72.5076 51.8096 72.5076C62.5991 72.5076 71.3768 63.7297 71.3768 52.9402C71.3768 42.1507 62.599 33.373 51.8096 33.373Z" fill="#FF3377"/>
<path d="M39.3854 52.9405C39.3854 59.7538 44.8981 65.3028 51.6973 65.3634L56.0191 52.9405L51.6973 40.5176C44.8981 40.5782 39.3854 46.1272 39.3854 52.9405Z" fill="#FAF9FF"/>
<path d="M32.0178 73.9576V74.3327C32.0178 77.9387 34.9514 80.8722 38.5573 80.8722H51.6974L54.6896 77.0308L51.6974 72.2334L32.0178 73.9576Z" fill="#FF3377"/>
<path d="M52.5094 72.1621L51.6975 72.2332V80.872H64.8376C68.4435 80.872 71.377 77.9385 71.377 74.3326V73.9574L52.5094 72.1621Z" fill="#E50070"/>
<path d="M32.0178 68.3262V73.9588H51.6974L54.6896 71.1425L51.6974 68.3262H32.0178Z" fill="#FDCBC5"/>
<path d="M51.6975 68.3262H71.377V73.9589H51.6975V68.3262Z" fill="#FDBEB6"/>
<path d="M51.8097 40.5156C51.7722 40.5156 51.7349 40.5167 51.6975 40.517V65.3629C51.735 65.3632 51.7722 65.3643 51.8097 65.3643C58.6605 65.3643 64.2341 59.7908 64.2341 52.94C64.2341 46.0893 58.6605 40.5156 51.8097 40.5156Z" fill="#ECE6EA"/>
</g>
<defs>
<clipPath id="clip0">
<rect width="71.3769" height="71.3769" fill="white" transform="translate(0 9.49609)"/>
</clipPath>
</defs>
</svg>
