<svg width="22" height="22" viewBox="0 0 22 22" fill="none" xmlns="http://www.w3.org/2000/svg">
<path fill-rule="evenodd" clip-rule="evenodd" d="M9.05359 13.251L9.16277 13.251L9.40474 13.2517C11.4599 13.2627 16.2742 13.4495 16.2742 16.6253C16.2742 19.5697 12.3202 19.9631 9.24463 19.978L8.70244 19.9777C6.64733 19.9668 1.83301 19.78 1.83301 16.6051C1.83301 13.5984 5.95342 13.251 9.05359 13.251ZM9.05359 14.626C5.17517 14.626 3.20801 15.2924 3.20801 16.6051C3.20801 17.9306 5.17517 18.6034 9.05359 18.6034C12.932 18.6034 14.8992 17.937 14.8992 16.6253C14.8992 15.2979 12.932 14.626 9.05359 14.626ZM17.6034 7.25848C17.9829 7.25848 18.2909 7.56648 18.2909 7.94598L18.2908 9.09576L19.4788 9.09649C19.8583 9.09649 20.1663 9.40449 20.1663 9.78399C20.1663 10.1635 19.8583 10.4715 19.4788 10.4715L18.2908 10.4708L18.2909 11.6227C18.2909 12.0022 17.9829 12.3102 17.6034 12.3102C17.2239 12.3102 16.9159 12.0022 16.9159 11.6227L16.9158 10.4708L15.7297 10.4715C15.3502 10.4715 15.0422 10.1635 15.0422 9.78399C15.0422 9.40449 15.3502 9.09649 15.7297 9.09649L16.9158 9.09576L16.9159 7.94598C16.9159 7.56648 17.2239 7.25848 17.6034 7.25848ZM9.05359 1.83301C11.7422 1.83301 13.9284 4.02017 13.9284 6.70784C13.9284 9.39551 11.7422 11.5827 9.05359 11.5827H9.02517C7.72442 11.5781 6.50526 11.0675 5.59134 10.1472C4.67651 9.22592 4.17509 8.00309 4.17964 6.70509C4.17964 4.02017 6.36592 1.83301 9.05359 1.83301ZM9.05359 3.20801C7.12492 3.20801 5.55465 4.77826 5.55465 6.70784C5.55101 7.64192 5.91034 8.51734 6.56576 9.17826C7.22209 9.83826 8.09659 10.204 9.02792 10.2077L9.05359 10.8869V10.2077C10.9832 10.2077 12.5534 8.63742 12.5534 6.70784C12.5534 4.77826 10.9832 3.20801 9.05359 3.20801Z" fill="#EBEDEF"/>
</svg>
