<svg width="16" height="16" viewBox="0 0 16 16" fill="none" xmlns="http://www.w3.org/2000/svg">
<path d="M12.5 5.50041H4.73948L8.42673 1.81316C8.47373 1.76616 8.49998 1.70266 8.49998 1.63641C8.49998 1.57016 8.47373 1.50641 8.42673 1.45966L7.71973 0.752664C7.43623 0.469164 6.94223 0.469164 6.65898 0.752664L6.08798 1.32366L6.44148 1.67716L7.01273 1.10616C7.10698 1.01166 7.27173 1.01166 7.36623 1.10616L7.89673 1.63641L1.88598 7.64691L1.35573 7.11641C1.30848 7.06941 1.28248 7.00666 1.28248 6.93966C1.28248 6.87266 1.30848 6.81016 1.35573 6.76291L5.94148 2.17716L5.58798 1.82366L5.24473 2.16691L4.89123 1.81341C4.59848 1.52066 4.12273 1.52091 3.83048 1.81341L2.06273 3.58116C1.77023 3.87366 1.77023 4.34941 2.06273 4.64191L2.41623 4.99541L1.00198 6.40966C0.860227 6.55141 0.782227 6.73966 0.782227 6.94016C0.782227 7.14066 0.860227 7.32891 1.00198 7.47041L1.70898 8.17766C1.75598 8.22416 1.81973 8.25041 1.88598 8.25041C1.95223 8.25041 2.01598 8.22416 2.06273 8.17716L3.39223 6.84766L4.44498 14.8484C4.49398 15.2199 4.81348 15.5004 5.18848 15.5004H10.8115C11.1865 15.5004 11.506 15.2199 11.5552 14.8482L12.419 8.28291L11.9232 8.21766L11.0595 14.7827C11.043 14.9069 10.9365 15.0004 10.8115 15.0004H5.18848C5.06348 15.0004 4.95698 14.9069 4.94073 14.7829L3.83798 6.40191L4.23948 6.00041H12.215L12.0547 7.21791L12.5505 7.28316L12.748 5.78316C12.7575 5.71166 12.7357 5.63991 12.6882 5.58566C12.6405 5.53141 12.572 5.50041 12.5 5.50041ZM2.41648 4.28816C2.31898 4.19066 2.31898 4.03216 2.41648 3.93441L4.18423 2.16666C4.28148 2.06941 4.44023 2.06916 4.53798 2.16666L4.89148 2.52016L2.77023 4.64141L2.41648 4.28816Z" fill="black"/>
<path d="M7.25 7.75V13.25C7.25 13.6635 7.5865 14 8 14C8.4135 14 8.75 13.6635 8.75 13.25V7.75C8.75 7.3365 8.4135 7 8 7C7.5865 7 7.25 7.3365 7.25 7.75ZM8.25 7.75V13.25C8.25 13.3878 8.13775 13.5 8 13.5C7.86225 13.5 7.75 13.3878 7.75 13.25V7.75C7.75 7.61225 7.86225 7.5 8 7.5C8.13775 7.5 8.25 7.61225 8.25 7.75Z" fill="black"/>
<path d="M5.25 7.75V13.25C5.25 13.6635 5.5865 14 6 14C6.4135 14 6.75 13.6635 6.75 13.25V7.75C6.75 7.3365 6.4135 7 6 7C5.5865 7 5.25 7.3365 5.25 7.75ZM6.25 7.75V13.25C6.25 13.3878 6.13775 13.5 6 13.5C5.86225 13.5 5.75 13.3878 5.75 13.25V7.75C5.75 7.61225 5.86225 7.5 6 7.5C6.13775 7.5 6.25 7.61225 6.25 7.75Z" fill="black"/>
<path d="M9.25 7.75V13.25C9.25 13.6635 9.5865 14 10 14C10.4135 14 10.75 13.6635 10.75 13.25V7.75C10.75 7.3365 10.4135 7 10 7C9.5865 7 9.25 7.3365 9.25 7.75ZM10.25 7.75V13.25C10.25 13.3878 10.1378 13.5 10 13.5C9.86225 13.5 9.75 13.3878 9.75 13.25V7.75C9.75 7.61225 9.86225 7.5 10 7.5C10.1378 7.5 10.25 7.61225 10.25 7.75Z" fill="black"/>
<path d="M9.31054 3.2574L8.31054 3.0074C8.2128 2.98315 8.11005 3.01965 8.05005 3.0999L7.30005 4.0999C7.25555 4.15915 7.23955 4.23515 7.2568 4.3074C7.2738 4.37965 7.32205 4.4404 7.3883 4.47365L8.3883 4.97365C8.42254 4.9909 8.46104 4.9999 8.49979 4.9999H9.74979C9.83279 4.9999 9.91029 4.95865 9.95679 4.89015C10.0033 4.82165 10.0128 4.73415 9.98204 4.65715L9.48204 3.40715C9.45204 3.33265 9.38829 3.2769 9.31054 3.2574ZM8.55879 4.4999L7.87955 4.1604L8.35029 3.5329L9.06504 3.71165L9.38054 4.4999H8.55879Z" fill="black"/>
<path d="M12.4635 2.86793L12.2238 2.38818C12.1733 2.28718 12.061 2.23268 11.951 2.25493L10.701 2.50493C10.584 2.52818 10.5 2.63068 10.5 2.74993V3.24993C10.5 3.27043 10.5025 3.29068 10.5075 3.31068L10.7575 4.31068C10.7855 4.42293 10.8865 4.49993 10.9998 4.49993C11.0103 4.49993 11.0205 4.49943 11.031 4.49793L13.031 4.24793C13.1195 4.23693 13.1952 4.17968 13.23 4.09743C13.2647 4.01518 13.2532 3.92093 13.1997 3.84968L12.4635 2.86793ZM11.1888 3.97443L11 3.21918V2.95493L11.8617 2.78268L12.0262 3.11193C12.033 3.12543 12.041 3.13818 12.05 3.15018L12.5415 3.80568L11.1888 3.97443Z" fill="black"/>
<path d="M11 0.5H11.5V1H11V0.5Z" fill="black"/>
<path d="M13.2012 2.05187L13.5059 2.44837C14.0587 2.02387 14.7679 1.85887 15.4512 1.99512L15.5494 1.50487C14.7234 1.33987 13.8679 1.53937 13.2012 2.05187Z" fill="black"/>
<path d="M14.25 3H14.75V3.5H14.25V3Z" fill="black"/>
<path d="M12 1.75H12.5C12.5 1.3365 12.8365 1 13.25 1V0.5C12.5608 0.5 12 1.06075 12 1.75Z" fill="black"/>
</svg>
