<svg width="60" height="60" viewBox="0 0 60 60" fill="none" xmlns="http://www.w3.org/2000/svg">
<g clip-path="url(#clip0)">
<path d="M48.2427 11.0445L47.23 9.3352C46.5314 8.64836 45.5733 8.22461 44.5162 8.22461H44.1951L24.2578 10.6125L4.19207 8.22473H3.87098C2.81371 8.22473 1.85535 8.64859 1.15668 9.33578L0.976562 12.0957V38.4213C0.976562 40.5591 2.70965 42.2922 4.8475 42.2922H44.5161L47.8329 41.1892C48.1846 40.6062 48.3871 39.9229 48.3871 39.1923V12.0957C48.3871 11.7313 48.3368 11.3787 48.2427 11.0445Z" fill="#E59F9F"/>
<path d="M48.2427 11.047C48.0586 10.3875 47.7007 9.80617 47.2298 9.33789L30.2252 25.6625C28.5401 27.2802 26.3668 28.0891 24.1935 28.0891C22.0201 28.0891 19.8469 27.2802 18.1617 25.6625L1.15676 9.33812C0.438633 10.0367 0 11.0161 0 12.0981V39.1949C0 41.3328 1.73309 43.0659 3.87094 43.0659H44.5161C45.4746 43.0659 46.3409 42.7081 47.0127 42.1284C47.3297 41.8594 47.6155 41.5509 47.8322 41.1913L32.338 26.3172L48.2427 11.047ZM1.93547 39.1949V17.3092C1.93547 15.6039 3.98109 14.7319 5.21133 15.9129L16.0491 26.3172L2.0332 39.7729C1.97531 39.5893 1.93547 39.3975 1.93547 39.1949ZM44.9741 41.1304H3.87094C3.72984 41.1304 3.5932 41.1134 3.46066 41.0848L17.4759 27.6298C19.3713 29.1764 21.7232 30.0245 24.1935 30.0245C26.6638 30.0245 29.0156 29.1763 30.911 27.6298L44.9741 41.1304Z" fill="#D69595"/>
<path d="M20.1724 23.5659C21.2592 24.6087 22.6873 25.1833 24.1937 25.1833C25.7001 25.1833 27.1281 24.6087 28.215 23.5659L44.1951 8.22461H4.19214L20.1724 23.5659Z" fill="#F49F9F"/>
<path d="M60 38.2252C60 41.1014 59.1037 43.7683 57.5753 45.9618C55.1273 49.4747 51.0579 50.8002 46.4516 50.8002C38.9691 50.8002 33.5156 45.7078 33.5156 38.2252C33.5156 33.6158 35.205 29.5441 38.7218 27.0968C40.914 25.5713 43.5784 24.6768 46.4516 24.6768C53.9341 24.6769 60 30.7426 60 38.2252Z" fill="#ECEAEC"/>
<path d="M57.8723 36.0815C57.0343 31.4046 53.2724 27.6427 48.5955 26.8048C45.4267 26.237 42.4432 26.9587 40.0697 28.5305C39.1713 29.1255 38.0667 28.0404 38.679 27.1539L38.7273 27.0919C34.7039 29.895 32.2601 34.8324 33.0525 40.2625C33.9027 46.0888 38.5885 50.7746 44.4148 51.6248C49.8449 52.4172 54.7724 49.9854 57.5755 45.9619C57.5606 45.9724 57.5431 45.985 57.5283 45.9954C56.6417 46.6077 55.5516 45.5059 56.1465 44.6076C57.7185 42.2339 58.4402 39.2503 57.8723 36.0815Z" fill="#DAD8DB"/>
<path d="M39.6086 31.3799C37.8573 33.1311 36.7742 35.5505 36.7742 38.2228C36.7742 43.5675 41.1069 47.9003 46.4516 47.9003C51.7963 47.9003 56.1291 43.5675 56.1291 38.2228L39.6086 31.3799Z" fill="#ECEAEC"/>
<path d="M46.4517 45.9684C50.7275 45.9684 54.1937 42.5021 54.1937 38.2264C54.1937 33.9506 50.7275 30.4844 46.4517 30.4844C42.1759 30.4844 38.7097 33.9506 38.7097 38.2264C38.7097 42.5021 42.1759 45.9684 46.4517 45.9684Z" fill="white"/>
<path d="M46.7289 29.3262C44.0565 29.3262 41.9242 30.498 40.9775 32.7514L45.9027 37.6766C46.2544 38.0283 46.7312 38.2257 47.2286 38.2257H54.1938C55.8109 34.8633 52.0736 29.3262 46.7289 29.3262Z" fill="#E59F9F"/>
<path d="M46.4518 28.5479C43.7795 28.5479 41.3601 29.631 39.6089 31.3824L40.9774 32.7509C42.3784 31.3499 44.314 30.4833 46.4518 30.4833C50.7275 30.4833 54.1938 33.9495 54.1938 38.2253H56.1293C56.1293 32.8805 51.7965 28.5479 46.4518 28.5479Z" fill="#D69595"/>
</g>
<defs>
<clipPath id="clip0">
<rect width="60" height="60" fill="white"/>
</clipPath>
</defs>
</svg>
