<svg width="20" height="20" viewBox="0 0 20 20" fill="none" xmlns="http://www.w3.org/2000/svg">
<path fill-rule="evenodd" clip-rule="evenodd" d="M10.0001 1.66699C14.5951 1.66699 18.3334 5.40533 18.3334 10.0003C18.3334 14.5953 14.5951 18.3337 10.0001 18.3337C5.40508 18.3337 1.66675 14.5953 1.66675 10.0003C1.66675 5.40533 5.40508 1.66699 10.0001 1.66699ZM10.0001 2.91699C6.09425 2.91699 2.91675 6.09449 2.91675 10.0003C2.91675 13.9062 6.09425 17.0837 10.0001 17.0837C13.9059 17.0837 17.0834 13.9062 17.0834 10.0003C17.0834 6.09449 13.9059 2.91699 10.0001 2.91699ZM10.0033 12.3302C10.4642 12.3302 10.8367 12.7027 10.8367 13.1636C10.8367 13.6244 10.4642 13.9969 10.0033 13.9969C9.5425 13.9969 9.16583 13.6244 9.16583 13.1636C9.16583 12.7027 9.535 12.3302 9.995 12.3302H10.0033ZM9.99516 6.21199C10.3402 6.21199 10.6202 6.49199 10.6202 6.83699V10.5195C10.6202 10.8645 10.3402 11.1445 9.99516 11.1445C9.65016 11.1445 9.37016 10.8645 9.37016 10.5195V6.83699C9.37016 6.49199 9.65016 6.21199 9.99516 6.21199Z" fill="#673BB7"/>
</svg>
