<svg width="32" height="32" viewBox="0 0 32 32" fill="none" xmlns="http://www.w3.org/2000/svg">
<path d="M18.1873 26.0929C18.5572 25.7628 19.1249 25.7423 19.5199 26.0663C19.9543 26.4227 20.0152 27.0609 19.6559 27.4917C18.7701 28.6406 17.3997 29.3201 15.9415 29.3337L15.652 29.3215C14.3076 29.2239 13.0633 28.561 12.2389 27.4917L12.1513 27.3695C11.8938 26.9472 11.98 26.3903 12.375 26.0663C12.8094 25.71 13.4529 25.7704 13.8122 26.2012C13.97 26.4104 14.1573 26.5961 14.3682 26.7526C14.932 27.169 15.6401 27.3449 16.3352 27.2413C17.0304 27.1378 17.6551 26.7634 18.0708 26.2012H18.0826L18.1873 26.0929ZM15.9533 2.66699C20.0463 2.66699 24.6361 5.55305 25.1566 10.1872V12.6039C25.3343 13.4762 25.7425 14.286 26.3395 14.9503C26.3749 14.9904 26.4065 15.0336 26.4341 15.0794C26.9754 15.8942 27.2859 16.8383 27.3332 17.8129L27.2977 18.0593C27.3385 19.393 26.8933 20.6967 26.0438 21.7314C24.9589 22.902 23.4758 23.6333 21.8798 23.7845C17.9487 24.216 13.9816 24.216 10.0505 23.7845C8.4779 23.623 7.02059 22.892 5.95753 21.7314C5.09399 20.7115 4.6355 19.4141 4.66813 18.0827V17.9185C4.73317 16.9147 5.06811 15.9465 5.63814 15.1146L5.73277 14.9972C6.32559 14.3301 6.73325 13.5215 6.91571 12.6509V10.2341L6.98112 10.0991C7.18 9.75632 7.56735 9.55584 7.97302 9.59974C8.42941 9.64911 8.7959 9.99553 8.86755 10.4453V12.862C8.87215 12.9049 8.87215 12.9482 8.86755 12.9911C8.62125 14.2014 8.05826 15.3262 7.2351 16.2526C6.9181 16.7534 6.73866 17.3277 6.71461 17.9185V18.1766C6.68835 19.0076 6.96561 19.82 7.49535 20.4643C8.22979 21.2167 9.21192 21.6829 10.2634 21.7783C14.0691 22.1889 17.9085 22.1889 21.7142 21.7783C22.7944 21.68 23.8006 21.1915 24.5414 20.4057C25.0452 19.7765 25.3091 18.9914 25.2867 18.1883V17.9185C25.2624 17.3257 25.0875 16.7486 24.778 16.2408C23.9206 15.325 23.3245 14.1993 23.0509 12.9794C23.0463 12.9365 23.0463 12.8932 23.0509 12.8503V10.4218C22.7079 6.87875 19.1473 4.68488 16.048 4.68488C14.7303 4.68188 13.4343 5.01735 12.2862 5.65863L12.1456 5.72843C11.8565 5.84516 11.5258 5.82467 11.2509 5.66623C10.9302 5.48139 10.7364 5.1381 10.745 4.77033C10.7537 4.40257 10.9635 4.06863 11.2926 3.89884C12.7152 3.10175 14.3194 2.67777 15.9533 2.66699Z" fill="#9F9F9F"/>
</svg>
