<svg width="18" height="18" viewBox="0 0 18 18" fill="none" xmlns="http://www.w3.org/2000/svg">
<path fill-rule="evenodd" clip-rule="evenodd" d="M2.63297 3.2171C2.63463 3.2171 2.59297 3.26043 2.54047 3.3121C2.3388 3.50793 1.9213 3.91543 1.91709 4.76793C1.91047 5.96043 2.69463 8.1746 6.47047 11.9496C10.2288 15.7063 12.4396 16.4996 13.6346 16.4996H13.6521C14.5046 16.4954 14.9113 16.0771 15.108 15.8763C15.168 15.8146 15.2163 15.7696 15.2505 15.7413C16.0805 14.9063 16.5055 14.2846 16.5013 13.8863C16.4955 13.4796 15.9896 12.9988 15.2905 12.3338C15.068 12.1221 14.8263 11.8921 14.5713 11.6371C13.9105 10.9779 13.583 11.0904 12.863 11.3438C11.8671 11.6929 10.5005 12.1679 8.37713 10.0438C6.25047 7.91877 6.7263 6.55377 7.07463 5.55793C7.3263 4.83793 7.4413 4.5096 6.77963 3.84793C6.52047 3.5896 6.28797 3.3446 6.0738 3.1196C5.41297 2.4246 4.9363 1.9221 4.53213 1.91627H4.52547C4.1263 1.91627 3.5063 2.34293 2.6288 3.22043C2.6313 3.21793 2.63213 3.2171 2.63297 3.2171ZM13.6355 17.7496C11.5588 17.7496 8.8513 16.0963 5.58713 12.8338C2.31047 9.55794 0.654632 6.8421 0.667062 4.76127C0.674632 3.38627 1.39547 2.6821 1.6663 2.41793C1.68047 2.40043 1.7288 2.35293 1.74547 2.33627C2.94047 1.14043 3.7463 0.657101 4.54797 0.66614C5.4788 0.678768 6.1413 1.37543 6.97963 2.25793C7.18713 2.47627 7.41213 2.71377 7.66297 2.96377C8.87963 4.18043 8.53297 5.17293 8.25463 5.9696C7.9513 6.83877 7.6888 7.58877 9.26047 9.16044C10.8338 10.7321 11.5838 10.4696 12.4496 10.1638C13.2471 9.88544 14.2371 9.5371 15.4555 10.7538C15.7021 11.0004 15.9363 11.2229 16.1521 11.4288C17.0388 12.2713 17.7388 12.9371 17.7506 13.8704C17.7605 14.6663 17.2771 15.4771 16.0838 16.6713L15.5555 16.3129L16.0021 16.7496C15.738 17.0204 15.0346 17.7421 13.6588 17.7496H13.6355Z" fill="#4E4891"/>
</svg>
