<svg width="22" height="22" viewBox="0 0 22 22" fill="none" xmlns="http://www.w3.org/2000/svg">
<path fill-rule="evenodd" clip-rule="evenodd" d="M12.81 1.83398C12.8494 1.83398 12.888 1.8373 12.9255 1.84366L13.0505 1.84434C13.2375 1.84434 13.4163 1.92043 13.5464 2.05518L18.1903 6.89426C18.3122 7.02168 18.3809 7.19309 18.3809 7.37001V15.895C18.3846 18.1583 16.5458 20.02 14.2825 20.0438L6.78327 20.0448C4.51635 20.0053 2.71235 18.1381 2.75085 15.8831V5.95009C2.8031 3.67584 4.68135 1.84434 6.9391 1.84434L12.6944 1.84366C12.732 1.8373 12.7706 1.83398 12.81 1.83398ZM12.1222 3.21907L6.94185 3.21934C5.42202 3.21934 4.1616 4.44951 4.12585 5.96659V15.895C4.09927 17.4048 5.29735 18.6441 6.7961 18.6698L6.93085 18.6688H14.2752C15.7803 18.6523 17.0078 17.4084 17.0059 15.8959L17.0053 8.23507L15.1649 8.23598C13.4865 8.2314 12.1225 6.86373 12.1225 5.18807L12.1222 3.21907ZM10.3991 8.90506C10.7786 8.90506 11.0866 9.21306 11.0866 9.59256L11.0864 11.1501L12.6442 11.1507C13.0237 11.1507 13.3317 11.4587 13.3317 11.8382C13.3317 12.2177 13.0237 12.5257 12.6442 12.5257L11.0864 12.5251L11.0866 14.0842C11.0866 14.4637 10.7786 14.7717 10.3991 14.7717C10.0196 14.7717 9.71156 14.4637 9.71156 14.0842L9.71141 12.5251L8.15341 12.5257C7.77391 12.5257 7.46591 12.2177 7.46591 11.8382C7.46591 11.4587 7.77391 11.1507 8.15341 11.1507L9.71141 11.1501L9.71156 9.59256C9.71156 9.21306 10.0196 8.90506 10.3991 8.90506ZM13.4972 3.98998L13.4975 5.18807C13.4975 6.1084 14.2464 6.85823 15.1667 6.86098L16.2509 6.86007L13.4972 3.98998Z" fill="white"/>
</svg>
